<svg width="1440" height="900" viewBox="0 0 1440 900" fill="none" xmlns="http://www.w3.org/2000/svg">
  <rect width="1440" height="900" rx="32" fill="#0A121C"/>
  <rect x="28" y="28" width="1384" height="844" rx="24" fill="#101A27" stroke="#2A4057"/>
  <rect x="58" y="64" width="260" height="772" rx="20" fill="#0F1F2E"/>
  <rect x="342" y="64" width="760" height="772" rx="20" fill="#08131D"/>
  <rect x="1126" y="64" width="256" height="772" rx="20" fill="#122232"/>
  <circle cx="722" cy="450" r="248" fill="#143047"/>
  <ellipse cx="722" cy="450" rx="248" ry="94" stroke="#7FC7FF" stroke-opacity="0.45"/>
  <ellipse cx="722" cy="450" rx="170" ry="248" stroke="#7FC7FF" stroke-opacity="0.25"/>
  <path d="M548 310C596 340 644 348 694 332C739 318 789 321 848 350C897 374 930 370 962 356" stroke="#FFBF69" stroke-width="6" stroke-linecap="round"/>
  <circle cx="626" cy="342" r="10" fill="#FF7E5F"/>
  <circle cx="725" cy="331" r="10" fill="#FF7E5F"/>
  <circle cx="862" cy="356" r="10" fill="#FF7E5F"/>
  <text x="88" y="124" fill="#F3F0E7" font-size="28" font-family="'Courier New', monospace">FEED GROUPS</text>
  <rect x="84" y="170" width="208" height="92" rx="16" fill="#193246"/>
  <rect x="84" y="280" width="208" height="92" rx="16" fill="#14293B"/>
  <rect x="84" y="390" width="208" height="92" rx="16" fill="#14293B"/>
  <text x="108" y="222" fill="#FFBF69" font-size="22" font-family="'Courier New', monospace">Austin DOT</text>
  <text x="108" y="332" fill="#D5E0EA" font-size="22" font-family="'Courier New', monospace">TfNSW</text>
  <text x="108" y="442" fill="#D5E0EA" font-size="22" font-family="'Courier New', monospace">TfL JamCam</text>
  <text x="113" y="570" fill="#7E95A9" font-size="18" font-family="'Courier New', monospace">Live source status</text>
  <text x="112" y="602" fill="#7E95A9" font-size="18" font-family="'Courier New', monospace">camera count</text>
  <text x="112" y="634" fill="#7E95A9" font-size="18" font-family="'Courier New', monospace">regional grouping</text>
  <text x="374" y="110" fill="#F3F0E7" font-size="26" font-family="Georgia, serif">Geospatial operator view</text>
  <text x="1156" y="126" fill="#F3F0E7" font-size="28" font-family="'Courier New', monospace">ACTIVE CAMERA</text>
  <rect x="1158" y="172" width="192" height="120" rx="16" fill="#1C3548"/>
  <rect x="1158" y="318" width="192" height="152" rx="16" fill="#0E1822"/>
  <rect x="1158" y="494" width="192" height="120" rx="16" fill="#182C3D"/>
  <text x="1182" y="228" fill="#F3F0E7" font-size="20" font-family="'Courier New', monospace">camera_1182</text>
  <text x="1182" y="256" fill="#FFBF69" font-size="18" font-family="'Courier New', monospace">online / websocket</text>
  <text x="1182" y="360" fill="#9DB2C2" font-size="18" font-family="'Courier New', monospace">lat/lon</text>
  <text x="1182" y="392" fill="#9DB2C2" font-size="18" font-family="'Courier New', monospace">provider</text>
  <text x="1182" y="424" fill="#9DB2C2" font-size="18" font-family="'Courier New', monospace">inspection queue</text>
  <text x="1182" y="544" fill="#F3F0E7" font-size="18" font-family="'Courier New', monospace">viewer handoff</text>
</svg>
